<?xml version="1.0" standalone="no"?>
<!DOCTYPE svg PUBLIC "-//W3C//DTD SVG 20010904//EN"
 "http://www.w3.org/TR/2001/REC-SVG-20010904/DTD/svg10.dtd">
<svg version="1.0" xmlns="http://www.w3.org/2000/svg"
 width="225.000000pt" height="225.000000pt" viewBox="0 0 225.000000 225.000000"
 preserveAspectRatio="xMidYMid meet">

<g transform="translate(0.000000,225.000000) scale(0.100000,-0.100000)"
fill="#000000" stroke="none">
<path d="M476 2240 c-71 -22 -106 -82 -106 -185 l0 -75 -39 0 c-60 0 -101 -39
-101 -95 0 -60 25 -87 86 -94 l49 -6 3 -51 3 -51 -48 -6 c-60 -7 -93 -40 -93
-97 0 -57 33 -90 93 -97 l48 -6 -3 -51 -3 -51 -49 -6 c-61 -7 -86 -34 -86 -94
0 -56 41 -95 101 -95 l39 0 0 -55 0 -55 -39 0 c-60 0 -101 -39 -101 -95 0 -60
25 -87 86 -94 l49 -6 3 -51 3 -51 -48 -6 c-35 -4 -53 -12 -70 -32 -25 -28 -31
-82 -13 -116 14 -25 62 -49 100 -49 l31 0 -3 -52 -3 -53 -49 -6 c-61 -7 -86
-34 -86 -94 0 -56 41 -95 101 -95 l39 0 0 -79 c0 -86 17 -123 73 -165 27 -20
41 -21 397 -24 359 -3 369 -2 379 17 8 15 7 23 -5 35 -13 14 -61 16 -369 16
l-354 0 -28 24 c-25 21 -28 31 -31 100 l-4 76 42 0 c33 0 48 6 71 29 60 60 21
156 -68 168 l-43 6 0 48 c0 48 1 49 31 49 62 0 109 43 109 100 0 57 -47 100
-109 100 -30 0 -31 1 -31 49 l0 49 45 6 c89 14 126 107 66 167 -23 23 -39 29
-70 29 l-41 0 0 55 0 55 41 0 c31 0 47 6 70 29 60 60 23 153 -66 167 l-45 6 0
49 c0 48 1 49 31 49 62 0 109 43 109 100 0 57 -47 100 -109 100 -30 0 -31 1
-31 49 l0 48 43 6 c89 12 128 108 68 168 -23 23 -38 29 -71 29 l-42 0 4 76 c3
69 6 79 31 100 24 21 39 24 101 24 43 0 77 5 84 12 17 17 15 45 -4 52 -23 9
-134 6 -168 -4z"/>
<path d="M749 2234 c-9 -11 -10 -20 -2 -32 9 -15 47 -17 367 -20 l356 -2 0
-1055 0 -1055 -68 0 c-79 0 -114 -17 -96 -47 10 -17 34 -18 295 -21 278 -2
285 -2 329 20 30 15 53 37 67 63 l23 40 -3 859 c-2 816 -3 859 -20 870 -15 9
-21 7 -33 -8 -12 -17 -14 -146 -14 -872 l0 -852 -31 -26 c-26 -22 -40 -26 -95
-26 l-64 0 0 1055 0 1055 64 0 c55 0 69 -4 95 -26 29 -24 30 -29 33 -111 3
-90 15 -114 52 -100 13 5 16 22 16 94 0 110 -22 156 -90 191 l-44 22 -562 0
c-500 0 -563 -2 -575 -16z"/>
<path d="M1088 1347 c-7 -8 -24 -36 -37 -64 l-24 -51 -59 -7 c-58 -7 -98 -30
-98 -56 0 -5 22 -34 49 -62 49 -51 49 -53 41 -97 -16 -79 -13 -99 16 -112 24
-11 34 -9 83 18 l57 31 55 -28 c65 -34 80 -35 103 -10 16 17 16 26 5 81 l-12
61 47 48 c32 32 46 55 46 73 0 33 -18 44 -91 53 -54 7 -58 9 -75 47 -36 81
-74 107 -106 75z m57 -129 c18 -40 24 -44 72 -53 l52 -10 -36 -38 c-33 -36
-34 -41 -28 -88 4 -27 4 -49 1 -49 -4 0 -25 9 -46 20 l-40 20 -50 -25 -51 -26
6 28 c4 15 8 38 11 50 3 16 -6 34 -31 62 -19 21 -35 41 -35 44 0 2 20 8 45 11
45 7 77 34 90 77 9 29 18 23 40 -23z"/>
</g>
</svg>
